<mxfile host="app.diagrams.net" modified="2020-09-19T13:31:14.606Z" agent="5.0 (X11; Linux x86_64) AppleWebKit/537.36 (KHTML, like Gecko) Chrome/85.0.4183.102 Safari/537.36" etag="F_TA7bvw7FZDbDgaz48C" version="13.7.3" type="github">
  <diagram id="aa6pCNVzayipGbmCveqG" name="Page-1">
    <mxGraphModel dx="2182" dy="727" grid="1" gridSize="10" guides="1" tooltips="1" connect="1" arrows="1" fold="1" page="1" pageScale="1" pageWidth="850" pageHeight="1100" math="0" shadow="0">
      <root>
        <mxCell id="0" />
        <mxCell id="1" parent="0" />
        <mxCell id="WZArgLKIn4Hqj4qm3GDz-4" value="" style="rounded=0;whiteSpace=wrap;html=1;" vertex="1" parent="1">
          <mxGeometry x="365" y="140" width="120" height="60" as="geometry" />
        </mxCell>
        <mxCell id="WZArgLKIn4Hqj4qm3GDz-5" value="Server" style="text;html=1;strokeColor=none;fillColor=none;align=center;verticalAlign=middle;whiteSpace=wrap;rounded=0;" vertex="1" parent="1">
          <mxGeometry x="405" y="135" width="40" height="70" as="geometry" />
        </mxCell>
        <mxCell id="WZArgLKIn4Hqj4qm3GDz-6" value="" style="ellipse;whiteSpace=wrap;html=1;aspect=fixed;" vertex="1" parent="1">
          <mxGeometry x="380" width="80" height="80" as="geometry" />
        </mxCell>
        <mxCell id="WZArgLKIn4Hqj4qm3GDz-7" value="Client" style="text;html=1;strokeColor=none;fillColor=none;align=center;verticalAlign=middle;whiteSpace=wrap;rounded=0;" vertex="1" parent="1">
          <mxGeometry x="395" y="30" width="50" height="20" as="geometry" />
        </mxCell>
        <mxCell id="WZArgLKIn4Hqj4qm3GDz-9" value="" style="endArrow=classic;startArrow=classic;html=1;exitX=0.5;exitY=0;exitDx=0;exitDy=0;" edge="1" parent="1" source="WZArgLKIn4Hqj4qm3GDz-5" target="WZArgLKIn4Hqj4qm3GDz-6">
          <mxGeometry width="50" height="50" relative="1" as="geometry">
            <mxPoint x="427" y="130" as="sourcePoint" />
            <mxPoint x="450" y="80" as="targetPoint" />
            <Array as="points" />
          </mxGeometry>
        </mxCell>
        <mxCell id="WZArgLKIn4Hqj4qm3GDz-10" value="" style="rounded=0;whiteSpace=wrap;html=1;" vertex="1" parent="1">
          <mxGeometry x="90" y="240" width="120" height="60" as="geometry" />
        </mxCell>
        <mxCell id="WZArgLKIn4Hqj4qm3GDz-11" value="Main Website" style="text;html=1;strokeColor=none;fillColor=none;align=center;verticalAlign=middle;whiteSpace=wrap;rounded=0;" vertex="1" parent="1">
          <mxGeometry x="120" y="260" width="40" height="20" as="geometry" />
        </mxCell>
        <mxCell id="WZArgLKIn4Hqj4qm3GDz-12" value="" style="rounded=0;whiteSpace=wrap;html=1;" vertex="1" parent="1">
          <mxGeometry x="245" y="240" width="120" height="60" as="geometry" />
        </mxCell>
        <mxCell id="WZArgLKIn4Hqj4qm3GDz-13" value="Blog" style="text;html=1;strokeColor=none;fillColor=none;align=center;verticalAlign=middle;whiteSpace=wrap;rounded=0;" vertex="1" parent="1">
          <mxGeometry x="280" y="260" width="40" height="20" as="geometry" />
        </mxCell>
        <mxCell id="WZArgLKIn4Hqj4qm3GDz-14" value="" style="rounded=0;whiteSpace=wrap;html=1;" vertex="1" parent="1">
          <mxGeometry x="390" y="240" width="120" height="60" as="geometry" />
        </mxCell>
        <mxCell id="WZArgLKIn4Hqj4qm3GDz-15" value="Komitees" style="text;html=1;strokeColor=none;fillColor=none;align=center;verticalAlign=middle;whiteSpace=wrap;rounded=0;" vertex="1" parent="1">
          <mxGeometry x="425" y="260" width="40" height="20" as="geometry" />
        </mxCell>
        <mxCell id="WZArgLKIn4Hqj4qm3GDz-18" value="" style="rounded=0;whiteSpace=wrap;html=1;" vertex="1" parent="1">
          <mxGeometry x="580" y="240" width="120" height="60" as="geometry" />
        </mxCell>
        <mxCell id="WZArgLKIn4Hqj4qm3GDz-19" value="admin&amp;nbsp;" style="text;html=1;strokeColor=none;fillColor=none;align=center;verticalAlign=middle;whiteSpace=wrap;rounded=0;" vertex="1" parent="1">
          <mxGeometry x="620" y="260" width="40" height="20" as="geometry" />
        </mxCell>
        <mxCell id="WZArgLKIn4Hqj4qm3GDz-20" value="" style="endArrow=classic;html=1;exitX=0.75;exitY=1;exitDx=0;exitDy=0;entryX=0.5;entryY=0;entryDx=0;entryDy=0;" edge="1" parent="1" source="WZArgLKIn4Hqj4qm3GDz-5" target="WZArgLKIn4Hqj4qm3GDz-10">
          <mxGeometry width="50" height="50" relative="1" as="geometry">
            <mxPoint x="400" y="390" as="sourcePoint" />
            <mxPoint x="450" y="340" as="targetPoint" />
          </mxGeometry>
        </mxCell>
        <mxCell id="WZArgLKIn4Hqj4qm3GDz-21" value="" style="endArrow=classic;html=1;exitX=0.75;exitY=1;exitDx=0;exitDy=0;entryX=0.5;entryY=0;entryDx=0;entryDy=0;" edge="1" parent="1" source="WZArgLKIn4Hqj4qm3GDz-5" target="WZArgLKIn4Hqj4qm3GDz-12">
          <mxGeometry width="50" height="50" relative="1" as="geometry">
            <mxPoint x="400" y="390" as="sourcePoint" />
            <mxPoint x="450" y="340" as="targetPoint" />
          </mxGeometry>
        </mxCell>
        <mxCell id="WZArgLKIn4Hqj4qm3GDz-22" value="" style="endArrow=classic;html=1;exitX=0.5;exitY=1;exitDx=0;exitDy=0;entryX=0.5;entryY=0;entryDx=0;entryDy=0;" edge="1" parent="1" source="WZArgLKIn4Hqj4qm3GDz-5" target="WZArgLKIn4Hqj4qm3GDz-14">
          <mxGeometry width="50" height="50" relative="1" as="geometry">
            <mxPoint x="400" y="390" as="sourcePoint" />
            <mxPoint x="450" y="340" as="targetPoint" />
          </mxGeometry>
        </mxCell>
        <mxCell id="WZArgLKIn4Hqj4qm3GDz-23" value="" style="endArrow=classic;html=1;exitX=0.5;exitY=1;exitDx=0;exitDy=0;entryX=0.5;entryY=0;entryDx=0;entryDy=0;" edge="1" parent="1" source="WZArgLKIn4Hqj4qm3GDz-5" target="WZArgLKIn4Hqj4qm3GDz-18">
          <mxGeometry width="50" height="50" relative="1" as="geometry">
            <mxPoint x="400" y="390" as="sourcePoint" />
            <mxPoint x="450" y="340" as="targetPoint" />
          </mxGeometry>
        </mxCell>
        <mxCell id="WZArgLKIn4Hqj4qm3GDz-24" value="" style="rounded=0;whiteSpace=wrap;html=1;" vertex="1" parent="1">
          <mxGeometry x="-170" y="360" width="120" height="60" as="geometry" />
        </mxCell>
        <mxCell id="WZArgLKIn4Hqj4qm3GDz-25" value="" style="rounded=0;whiteSpace=wrap;html=1;" vertex="1" parent="1">
          <mxGeometry x="-20" y="360" width="120" height="60" as="geometry" />
        </mxCell>
        <mxCell id="WZArgLKIn4Hqj4qm3GDz-26" value="" style="rounded=0;whiteSpace=wrap;html=1;" vertex="1" parent="1">
          <mxGeometry x="125" y="360" width="120" height="60" as="geometry" />
        </mxCell>
        <mxCell id="WZArgLKIn4Hqj4qm3GDz-27" value="DatenschutzmÃ¼ll" style="text;html=1;strokeColor=none;fillColor=none;align=center;verticalAlign=middle;whiteSpace=wrap;rounded=0;" vertex="1" parent="1">
          <mxGeometry x="165" y="380" width="40" height="20" as="geometry" />
        </mxCell>
        <mxCell id="WZArgLKIn4Hqj4qm3GDz-28" value="About&lt;br&gt;" style="text;html=1;strokeColor=none;fillColor=none;align=center;verticalAlign=middle;whiteSpace=wrap;rounded=0;" vertex="1" parent="1">
          <mxGeometry x="20" y="380" width="40" height="20" as="geometry" />
        </mxCell>
        <mxCell id="WZArgLKIn4Hqj4qm3GDz-29" value="Landing page" style="text;html=1;strokeColor=none;fillColor=none;align=center;verticalAlign=middle;whiteSpace=wrap;rounded=0;" vertex="1" parent="1">
          <mxGeometry x="-130" y="380" width="40" height="20" as="geometry" />
        </mxCell>
        <mxCell id="WZArgLKIn4Hqj4qm3GDz-30" value="" style="endArrow=classic;html=1;exitX=0.5;exitY=1;exitDx=0;exitDy=0;" edge="1" parent="1" source="WZArgLKIn4Hqj4qm3GDz-10" target="WZArgLKIn4Hqj4qm3GDz-26">
          <mxGeometry width="50" height="50" relative="1" as="geometry">
            <mxPoint x="400" y="380" as="sourcePoint" />
            <mxPoint x="450" y="330" as="targetPoint" />
          </mxGeometry>
        </mxCell>
        <mxCell id="WZArgLKIn4Hqj4qm3GDz-31" value="" style="endArrow=classic;html=1;exitX=0.45;exitY=1;exitDx=0;exitDy=0;exitPerimeter=0;entryX=0.5;entryY=0;entryDx=0;entryDy=0;" edge="1" parent="1" source="WZArgLKIn4Hqj4qm3GDz-10" target="WZArgLKIn4Hqj4qm3GDz-25">
          <mxGeometry width="50" height="50" relative="1" as="geometry">
            <mxPoint x="400" y="380" as="sourcePoint" />
            <mxPoint x="450" y="330" as="targetPoint" />
          </mxGeometry>
        </mxCell>
        <mxCell id="WZArgLKIn4Hqj4qm3GDz-32" value="" style="endArrow=classic;html=1;entryX=0.5;entryY=0;entryDx=0;entryDy=0;" edge="1" parent="1" target="WZArgLKIn4Hqj4qm3GDz-24">
          <mxGeometry width="50" height="50" relative="1" as="geometry">
            <mxPoint x="140" y="300" as="sourcePoint" />
            <mxPoint x="450" y="330" as="targetPoint" />
          </mxGeometry>
        </mxCell>
        <mxCell id="WZArgLKIn4Hqj4qm3GDz-33" value="" style="rounded=0;whiteSpace=wrap;html=1;" vertex="1" parent="1">
          <mxGeometry x="270" y="360" width="120" height="60" as="geometry" />
        </mxCell>
        <mxCell id="WZArgLKIn4Hqj4qm3GDz-34" value="Einzelne&lt;br&gt;Blogartikel" style="text;html=1;strokeColor=none;fillColor=none;align=center;verticalAlign=middle;whiteSpace=wrap;rounded=0;" vertex="1" parent="1">
          <mxGeometry x="310" y="380" width="40" height="20" as="geometry" />
        </mxCell>
        <mxCell id="WZArgLKIn4Hqj4qm3GDz-35" value="" style="endArrow=classic;html=1;exitX=0.5;exitY=1;exitDx=0;exitDy=0;entryX=0.5;entryY=0;entryDx=0;entryDy=0;" edge="1" parent="1" source="WZArgLKIn4Hqj4qm3GDz-12" target="WZArgLKIn4Hqj4qm3GDz-33">
          <mxGeometry width="50" height="50" relative="1" as="geometry">
            <mxPoint x="400" y="370" as="sourcePoint" />
            <mxPoint x="450" y="320" as="targetPoint" />
          </mxGeometry>
        </mxCell>
        <mxCell id="WZArgLKIn4Hqj4qm3GDz-36" value="" style="rounded=0;whiteSpace=wrap;html=1;" vertex="1" parent="1">
          <mxGeometry x="410" y="360" width="120" height="60" as="geometry" />
        </mxCell>
        <mxCell id="WZArgLKIn4Hqj4qm3GDz-37" value="Einzelne&lt;br&gt;Komitees" style="text;html=1;strokeColor=none;fillColor=none;align=center;verticalAlign=middle;whiteSpace=wrap;rounded=0;" vertex="1" parent="1">
          <mxGeometry x="450" y="380" width="40" height="20" as="geometry" />
        </mxCell>
        <mxCell id="WZArgLKIn4Hqj4qm3GDz-38" value="" style="endArrow=classic;html=1;entryX=0.5;entryY=0;entryDx=0;entryDy=0;exitX=0.442;exitY=1.033;exitDx=0;exitDy=0;exitPerimeter=0;" edge="1" parent="1" source="WZArgLKIn4Hqj4qm3GDz-14" target="WZArgLKIn4Hqj4qm3GDz-36">
          <mxGeometry width="50" height="50" relative="1" as="geometry">
            <mxPoint x="400" y="330" as="sourcePoint" />
            <mxPoint x="450" y="310" as="targetPoint" />
          </mxGeometry>
        </mxCell>
        <mxCell id="WZArgLKIn4Hqj4qm3GDz-39" value="" style="rounded=0;whiteSpace=wrap;html=1;" vertex="1" parent="1">
          <mxGeometry x="580" y="360" width="120" height="60" as="geometry" />
        </mxCell>
        <mxCell id="WZArgLKIn4Hqj4qm3GDz-40" value="Datenbankmodelle" style="text;html=1;strokeColor=none;fillColor=none;align=center;verticalAlign=middle;whiteSpace=wrap;rounded=0;" vertex="1" parent="1">
          <mxGeometry x="620" y="380" width="40" height="20" as="geometry" />
        </mxCell>
        <mxCell id="WZArgLKIn4Hqj4qm3GDz-41" style="edgeStyle=orthogonalEdgeStyle;rounded=0;orthogonalLoop=1;jettySize=auto;html=1;exitX=0.25;exitY=1;exitDx=0;exitDy=0;entryX=0.2;entryY=1;entryDx=0;entryDy=0;entryPerimeter=0;" edge="1" parent="1" source="WZArgLKIn4Hqj4qm3GDz-39" target="WZArgLKIn4Hqj4qm3GDz-39">
          <mxGeometry relative="1" as="geometry" />
        </mxCell>
        <mxCell id="WZArgLKIn4Hqj4qm3GDz-42" value="" style="rounded=0;whiteSpace=wrap;html=1;" vertex="1" parent="1">
          <mxGeometry x="750" y="360" width="120" height="60" as="geometry" />
        </mxCell>
        <mxCell id="WZArgLKIn4Hqj4qm3GDz-43" value="Statistiken" style="text;html=1;strokeColor=none;fillColor=none;align=center;verticalAlign=middle;whiteSpace=wrap;rounded=0;" vertex="1" parent="1">
          <mxGeometry x="790" y="380" width="40" height="20" as="geometry" />
        </mxCell>
        <mxCell id="WZArgLKIn4Hqj4qm3GDz-44" value="" style="endArrow=classic;html=1;exitX=0.5;exitY=1;exitDx=0;exitDy=0;" edge="1" parent="1" source="WZArgLKIn4Hqj4qm3GDz-18" target="WZArgLKIn4Hqj4qm3GDz-39">
          <mxGeometry width="50" height="50" relative="1" as="geometry">
            <mxPoint x="400" y="360" as="sourcePoint" />
            <mxPoint x="450" y="310" as="targetPoint" />
          </mxGeometry>
        </mxCell>
        <mxCell id="WZArgLKIn4Hqj4qm3GDz-45" value="" style="endArrow=classic;html=1;exitX=0.5;exitY=1;exitDx=0;exitDy=0;entryX=0.5;entryY=0;entryDx=0;entryDy=0;" edge="1" parent="1" source="WZArgLKIn4Hqj4qm3GDz-18" target="WZArgLKIn4Hqj4qm3GDz-42">
          <mxGeometry width="50" height="50" relative="1" as="geometry">
            <mxPoint x="400" y="360" as="sourcePoint" />
            <mxPoint x="450" y="310" as="targetPoint" />
          </mxGeometry>
        </mxCell>
        <mxCell id="WZArgLKIn4Hqj4qm3GDz-46" value="" style="rounded=0;whiteSpace=wrap;html=1;" vertex="1" parent="1">
          <mxGeometry x="360" y="570" width="120" height="60" as="geometry" />
        </mxCell>
        <mxCell id="WZArgLKIn4Hqj4qm3GDz-47" value="Database-Mapper" style="text;html=1;strokeColor=none;fillColor=none;align=center;verticalAlign=middle;whiteSpace=wrap;rounded=0;" vertex="1" parent="1">
          <mxGeometry x="400" y="590" width="40" height="20" as="geometry" />
        </mxCell>
        <mxCell id="WZArgLKIn4Hqj4qm3GDz-49" value="cache" style="rounded=0;whiteSpace=wrap;html=1;" vertex="1" parent="1">
          <mxGeometry x="430" y="680" width="120" height="60" as="geometry" />
        </mxCell>
        <mxCell id="WZArgLKIn4Hqj4qm3GDz-52" value="sql-datenbank" style="rounded=0;whiteSpace=wrap;html=1;" vertex="1" parent="1">
          <mxGeometry x="280" y="680" width="120" height="60" as="geometry" />
        </mxCell>
        <mxCell id="WZArgLKIn4Hqj4qm3GDz-53" value="" style="endArrow=classic;html=1;exitX=0.5;exitY=1;exitDx=0;exitDy=0;entryX=0.5;entryY=0;entryDx=0;entryDy=0;" edge="1" parent="1" source="WZArgLKIn4Hqj4qm3GDz-46" target="WZArgLKIn4Hqj4qm3GDz-52">
          <mxGeometry width="50" height="50" relative="1" as="geometry">
            <mxPoint x="400" y="520" as="sourcePoint" />
            <mxPoint x="450" y="470" as="targetPoint" />
          </mxGeometry>
        </mxCell>
        <mxCell id="WZArgLKIn4Hqj4qm3GDz-54" value="" style="endArrow=classic;html=1;exitX=0.5;exitY=1;exitDx=0;exitDy=0;entryX=0.5;entryY=0;entryDx=0;entryDy=0;" edge="1" parent="1" source="WZArgLKIn4Hqj4qm3GDz-46" target="WZArgLKIn4Hqj4qm3GDz-49">
          <mxGeometry width="50" height="50" relative="1" as="geometry">
            <mxPoint x="400" y="520" as="sourcePoint" />
            <mxPoint x="450" y="470" as="targetPoint" />
          </mxGeometry>
        </mxCell>
        <mxCell id="WZArgLKIn4Hqj4qm3GDz-55" value="" style="endArrow=classic;html=1;exitX=0.5;exitY=1;exitDx=0;exitDy=0;entryX=0.5;entryY=0;entryDx=0;entryDy=0;" edge="1" parent="1" source="WZArgLKIn4Hqj4qm3GDz-33" target="WZArgLKIn4Hqj4qm3GDz-46">
          <mxGeometry width="50" height="50" relative="1" as="geometry">
            <mxPoint x="400" y="520" as="sourcePoint" />
            <mxPoint x="450" y="470" as="targetPoint" />
          </mxGeometry>
        </mxCell>
        <mxCell id="WZArgLKIn4Hqj4qm3GDz-56" value="" style="endArrow=classic;html=1;exitX=0.5;exitY=1;exitDx=0;exitDy=0;entryX=0.5;entryY=0;entryDx=0;entryDy=0;" edge="1" parent="1" source="WZArgLKIn4Hqj4qm3GDz-36" target="WZArgLKIn4Hqj4qm3GDz-46">
          <mxGeometry width="50" height="50" relative="1" as="geometry">
            <mxPoint x="400" y="520" as="sourcePoint" />
            <mxPoint x="450" y="470" as="targetPoint" />
          </mxGeometry>
        </mxCell>
        <mxCell id="WZArgLKIn4Hqj4qm3GDz-57" value="" style="endArrow=classic;html=1;exitX=0.5;exitY=1;exitDx=0;exitDy=0;entryX=0.25;entryY=0;entryDx=0;entryDy=0;" edge="1" parent="1" source="WZArgLKIn4Hqj4qm3GDz-24" target="WZArgLKIn4Hqj4qm3GDz-46">
          <mxGeometry width="50" height="50" relative="1" as="geometry">
            <mxPoint x="400" y="520" as="sourcePoint" />
            <mxPoint x="450" y="470" as="targetPoint" />
          </mxGeometry>
        </mxCell>
        <mxCell id="WZArgLKIn4Hqj4qm3GDz-58" value="" style="endArrow=classic;html=1;exitX=0.5;exitY=1;exitDx=0;exitDy=0;entryX=0.25;entryY=0;entryDx=0;entryDy=0;" edge="1" parent="1" source="WZArgLKIn4Hqj4qm3GDz-25" target="WZArgLKIn4Hqj4qm3GDz-46">
          <mxGeometry width="50" height="50" relative="1" as="geometry">
            <mxPoint x="400" y="520" as="sourcePoint" />
            <mxPoint x="450" y="470" as="targetPoint" />
          </mxGeometry>
        </mxCell>
        <mxCell id="WZArgLKIn4Hqj4qm3GDz-59" value="" style="endArrow=classic;html=1;exitX=0.5;exitY=1;exitDx=0;exitDy=0;" edge="1" parent="1" source="WZArgLKIn4Hqj4qm3GDz-26">
          <mxGeometry width="50" height="50" relative="1" as="geometry">
            <mxPoint x="400" y="520" as="sourcePoint" />
            <mxPoint x="390" y="570" as="targetPoint" />
          </mxGeometry>
        </mxCell>
        <mxCell id="WZArgLKIn4Hqj4qm3GDz-60" value="" style="endArrow=classic;html=1;exitX=0.5;exitY=1;exitDx=0;exitDy=0;entryX=0.75;entryY=0;entryDx=0;entryDy=0;" edge="1" parent="1" source="WZArgLKIn4Hqj4qm3GDz-39" target="WZArgLKIn4Hqj4qm3GDz-46">
          <mxGeometry width="50" height="50" relative="1" as="geometry">
            <mxPoint x="400" y="520" as="sourcePoint" />
            <mxPoint x="450" y="470" as="targetPoint" />
          </mxGeometry>
        </mxCell>
        <mxCell id="WZArgLKIn4Hqj4qm3GDz-61" value="" style="endArrow=classic;html=1;exitX=0.5;exitY=1;exitDx=0;exitDy=0;" edge="1" parent="1" source="WZArgLKIn4Hqj4qm3GDz-42">
          <mxGeometry width="50" height="50" relative="1" as="geometry">
            <mxPoint x="400" y="520" as="sourcePoint" />
            <mxPoint x="450" y="570" as="targetPoint" />
          </mxGeometry>
        </mxCell>
      </root>
    </mxGraphModel>
  </diagram>
</mxfile>
